<svg width="14" height="13" viewBox="0 0 14 13" fill="none" xmlns="http://www.w3.org/2000/svg">
<path d="M10.3659 3.9422C10.7967 3.9422 11.1459 3.59298 11.1459 3.1622C11.1459 2.73142 10.7967 2.3822 10.3659 2.3822C9.93516 2.3822 9.58594 2.73142 9.58594 3.1622C9.58594 3.59298 9.93516 3.9422 10.3659 3.9422Z" fill="#0A142F"/>
<path d="M7 3.25C8.79237 3.25 10.25 4.70763 10.25 6.5C10.25 8.29238 8.79237 9.75 7 9.75C5.20763 9.75 3.75 8.29238 3.75 6.5C3.75 4.70763 5.20763 3.25 7 3.25ZM7 4.875C6.10381 4.875 5.375 5.60381 5.375 6.5C5.375 7.39619 6.10381 8.125 7 8.125C7.89619 8.125 8.625 7.39619 8.625 6.5C8.625 5.60381 7.89619 4.875 7 4.875Z" fill="#0A142F"/>
<path d="M10.25 0C11.9205 3.66325e-07 13.5 1.5795 13.5 3.25V9.75C13.5 11.4205 11.9205 13 10.25 13H3.75C2.0795 13 0.5 11.4205 0.5 9.75V3.25C0.5 1.5795 2.0795 0 3.75 0H10.25ZM3.75 1.625C2.99031 1.625 2.125 2.49031 2.125 3.25V9.75C2.125 10.5243 2.97569 11.375 3.75 11.375H10.25C11.0097 11.375 11.875 10.5097 11.875 9.75V3.25C11.875 2.49031 11.0097 1.625 10.25 1.625H3.75Z" fill="#0A142F"/>
</svg>
