<svg width="17" height="11" viewBox="0 0 17 11" fill="none" xmlns="http://www.w3.org/2000/svg">
<path fill-rule="evenodd" clip-rule="evenodd" d="M14.7659 0.343069C15.451 0.524413 15.9906 1.05589 16.1745 1.72945C16.5159 2.95882 16.4999 5.52198 16.4999 5.52198C16.4999 5.52198 16.4975 8.07101 16.1665 9.2996C15.9803 9.97238 15.4382 10.5031 14.7539 10.6836C13.502 11.0055 8.49355 11 8.49355 11C8.49355 11 3.49868 10.9945 2.23398 10.6569C1.54806 10.4756 1.00844 9.94411 0.824573 9.27133C0.496805 8.05452 0.500001 5.49215 0.500001 5.49215C0.500001 5.49215 0.5032 2.94234 0.833367 1.71296C1.01884 1.04018 1.57364 0.496937 2.24517 0.317162C3.49788 -0.00548932 8.50554 5.96305e-06 8.50554 5.96305e-06C8.50554 5.96305e-06 13.514 0.00550127 14.7659 0.343069ZM6.90747 3.14409L6.90347 7.85434L11.0701 5.50314L6.90747 3.14409Z" fill="#0A142F"/>
</svg>
