<svg width="25" height="24" viewBox="0 0 25 24" fill="none" xmlns="http://www.w3.org/2000/svg">
<path d="M4.90234 9.06049V14.0395M4.90284 12.982L7.20584 10.7395M5.63584 12.2685L7.44634 14.0325M8.48484 11.986C8.48484 11.2985 9.05434 10.741 9.75684 10.741C10.4593 10.741 11.0288 11.2985 11.0288 11.986M11.0288 11.986V14.0395M11.0288 11.986C11.0288 11.2985 11.5983 10.741 12.3008 10.741C13.0033 10.741 13.5728 11.2985 13.5728 11.986V14.0395M8.48484 10.741V14.0395M16.3938 8.84149L14.4858 15.1585M17.5553 9.06049V14.0395M17.5553 11.986C17.5553 11.2985 18.1248 10.741 18.8273 10.741C19.5298 10.741 20.0993 11.2985 20.0993 11.986V14.0395" stroke="black" stroke-width="0.5" stroke-linecap="round" stroke-linejoin="round"/>
<path d="M5.25 2.75H19.75C20.858 2.75 21.75 3.642 21.75 4.75V19.25C21.75 20.358 20.858 21.25 19.75 21.25H5.25C4.142 21.25 3.25 20.358 3.25 19.25V4.75C3.25 3.642 4.142 2.75 5.25 2.75Z" stroke="black" stroke-width="0.5" stroke-linecap="round" stroke-linejoin="round"/>
</svg>
